<svg xmlns="http://www.w3.org/2000/svg" width="24" height="24" viewBox="0 0 24 24"><g transform="translate(-1.5 -1.5)" opacity="0.5"><path d="M13.5,25.5h0a12,12,0,1,1,0-24h0a10.781,10.781,0,0,1,4.909,1.091,1.074,1.074,0,1,1-.873,1.964A10.325,10.325,0,0,0,13.5,3.682h0a9.818,9.818,0,1,0,0,19.636h0A9.777,9.777,0,0,0,23.318,13.5v-.982a1.091,1.091,0,1,1,2.182,0V13.5A11.965,11.965,0,0,1,13.5,25.5Z" fill="#fff"/><path d="M16.364,17.591a.99.99,0,0,1-.764-.327l-3.273-3.273a1.08,1.08,0,0,1,1.527-1.527l2.509,2.509L26.509,4.827a1.08,1.08,0,0,1,1.527,1.527L17.127,17.264A.99.99,0,0,1,16.364,17.591Z" transform="translate(-2.864 -0.818)" fill="#fff"/></g></svg>