<?xml version="1.0" encoding="utf-8"?>
<!-- Generator: Adobe Illustrator 25.3.1, SVG Export Plug-In . SVG Version: 6.00 Build 0)  -->
<svg version="1.1" id="Layer_1" xmlns="http://www.w3.org/2000/svg" xmlns:xlink="http://www.w3.org/1999/xlink" x="0px" y="0px"
	 viewBox="0 0 40 40" style="enable-background:new 0 0 40 40;" xml:space="preserve">
<style type="text/css">
	.st0{opacity:5.000000e-02;fill:#FFFFFF;enable-background:new    ;}
	.st1{opacity:0.5;fill:#FFFFFF;enable-background:new    ;}
</style>
<g id="Layer_2_1_">
	<g id="Layer_7">
		
			<rect x="7.3" y="7.3" transform="matrix(0.7071 -0.7071 0.7071 0.7071 -8.2874 20.0013)" class="st0" width="25.5" height="25.5"/>
		<path class="st1" d="M14,8L2,20l12,12l12-12L14,8z M14,26.8c-3.5,0-6.3-2.8-6.3-6.3c0-3.5,2.8-6.3,6.3-6.3c1,0,2,0.2,2.9,0.7v-1.6
			h1.8v4.3h-4.3V16c-0.1,0-0.3,0-0.4,0c-2.5,0-4.5,2-4.5,4.5s2,4.5,4.5,4.5s4.5-2,4.5-4.5h1.8C20.2,23.9,17.5,26.7,14,26.8L14,26.8z
			"/>
	</g>
</g>
</svg>
