<?xml version="1.0" encoding="utf-8"?>
<!-- Generator: Adobe Illustrator 25.3.1, SVG Export Plug-In . SVG Version: 6.00 Build 0)  -->
<svg version="1.1" id="Layer_1" xmlns="http://www.w3.org/2000/svg" xmlns:xlink="http://www.w3.org/1999/xlink" x="0px" y="0px"
	 viewBox="0 0 60 60" style="enable-background:new 0 0 60 60;" xml:space="preserve">
<style type="text/css">
	.st0{fill:#FFF799;}
</style>
<g id="Layer_2_1_">
	<g id="Layer_12_copy_24">
		<path class="st0" d="M26.7,27.7H10c-0.6,0-1-0.4-1-1V10c0-0.6,0.4-1,1-1h16.7c0.6,0,1,0.4,1,1v16.7C27.7,27.2,27.2,27.7,26.7,27.7
			z M11,25.7h14.7V11H11V25.7z"/>
		<path class="st0" d="M26.7,51H10c-0.6,0-1-0.4-1-1V33.3c0-0.6,0.4-1,1-1h16.7c0.6,0,1,0.4,1,1V50C27.7,50.6,27.2,51,26.7,51z
			 M11,49h14.7V34.3H11V49z"/>
		<path class="st0" d="M50,27.7H33.3c-0.6,0-1-0.4-1-1V10c0-0.6,0.4-1,1-1H50c0.6,0,1,0.4,1,1v16.7C51,27.2,50.6,27.7,50,27.7z
			 M34.3,25.7H49V11H34.3V25.7z"/>
		<path class="st0" d="M50,51H33.3c-0.6,0-1-0.4-1-1V33.3c0-0.6,0.4-1,1-1H50c0.6,0,1,0.4,1,1V50C51,50.6,50.6,51,50,51z M34.3,49
			H49V34.3H34.3V49z"/>
	</g>
</g>
</svg>
