<?xml version="1.0" encoding="utf-8"?>
<!-- Generator: Adobe Illustrator 25.3.1, SVG Export Plug-In . SVG Version: 6.00 Build 0)  -->
<svg version="1.1" id="Layer_1" xmlns="http://www.w3.org/2000/svg" xmlns:xlink="http://www.w3.org/1999/xlink" x="0px" y="0px"
	 viewBox="0 0 40 40" style="enable-background:new 0 0 40 40;" xml:space="preserve">
<style type="text/css">
	.st0{fill:#FFFFFF;}
</style>
<path class="st0" d="M3.5,5.6h33C37.3,5.6,38,5,38,4.1s-0.7-1.5-1.5-1.5h-33C2.7,2.6,2,3.3,2,4.1S2.7,5.6,3.5,5.6z"/>
<path class="st0" d="M36.5,34.4h-33C2.7,34.4,2,35,2,35.9c0,0.8,0.7,1.5,1.5,1.5h33c0.8,0,1.5-0.7,1.5-1.5
	C38,35,37.3,34.4,36.5,34.4z"/>
<path class="st0" d="M36.5,18.5h-33C2.7,18.5,2,19.2,2,20s0.7,1.5,1.5,1.5h33c0.8,0,1.5-0.7,1.5-1.5S37.3,18.5,36.5,18.5z"/>
</svg>
