<?xml version="1.0" encoding="utf-8"?>
<!-- Generator: Adobe Illustrator 25.3.1, SVG Export Plug-In . SVG Version: 6.00 Build 0)  -->
<svg version="1.1" id="Layer_1" xmlns="http://www.w3.org/2000/svg" xmlns:xlink="http://www.w3.org/1999/xlink" x="0px" y="0px"
	 viewBox="0 0 50 50" style="enable-background:new 0 0 50 50;" xml:space="preserve">
<style type="text/css">
	.st0{fill:#FFFFFF;}
</style>
<g>
	<path class="st0" d="M44.9,11.4H5.1C4.5,11.4,4,11,4,10.3s0.5-1.1,1.1-1.1h39.8c0.6,0,1.1,0.5,1.1,1.1S45.5,11.4,44.9,11.4z"/>
	<path class="st0" d="M44.9,26.1H5.1C4.5,26.1,4,25.6,4,25s0.5-1.1,1.1-1.1h39.8c0.6,0,1.1,0.5,1.1,1.1S45.5,26.1,44.9,26.1z"/>
	<path class="st0" d="M44.9,40.8H5.1c-0.6,0-1.1-0.5-1.1-1.1c0-0.6,0.5-1.1,1.1-1.1h39.8c0.6,0,1.1,0.5,1.1,1.1
		C46,40.3,45.5,40.8,44.9,40.8z"/>
</g>
</svg>
