<?xml version="1.0" encoding="utf-8"?>
<!-- Generator: Adobe Illustrator 25.3.1, SVG Export Plug-In . SVG Version: 6.00 Build 0)  -->
<svg version="1.1" id="Layer_1" xmlns="http://www.w3.org/2000/svg" xmlns:xlink="http://www.w3.org/1999/xlink" x="0px" y="0px"
	 viewBox="0 0 34 34" style="enable-background:new 0 0 34 34;" xml:space="preserve">
<style type="text/css">
	.st0{opacity:0.2;fill:#FFFFFF;}
</style>
<path class="st0" d="M33.5,17.2L33.5,17.2c0.1-0.2,0.1-0.3,0-0.5c0-0.1-0.1-0.2-0.1-0.2l-5.1-5.1c-0.2-0.2-0.6-0.2-0.8,0.1
	c-0.2,0.2-0.2,0.6,0,0.8l4.1,4.1H17.6v-14l4.1,4.1c0.2,0.2,0.6,0.2,0.8,0c0.2-0.2,0.2-0.6,0-0.9l-5.1-5.1c-0.1-0.1-0.1-0.1-0.2-0.1
	c-0.2-0.1-0.3-0.1-0.5,0c-0.1,0-0.1,0.1-0.2,0.1l-5.1,5.1c-0.1,0.1-0.1,0.3-0.1,0.4c0,0.2,0.1,0.3,0.2,0.4c0.2,0.2,0.6,0.2,0.8,0
	l4.1-4.1v14h-14l4.1-4.1c0.2-0.2,0.2-0.6,0-0.8c-0.2-0.2-0.6-0.2-0.8,0l-5.1,5.1c0,0.1-0.1,0.1-0.1,0.2c-0.1,0.2-0.1,0.3,0,0.5
	c0,0.1,0.1,0.2,0.1,0.2l5.1,5.1c0.2,0.2,0.6,0.2,0.8,0c0.2-0.2,0.2-0.6,0-0.8l-4.1-4.1h14v14l-4.1-4.1c-0.1-0.1-0.2-0.1-0.4-0.1
	c0,0,0,0,0,0c-0.2,0-0.3,0.1-0.4,0.2c-0.2,0.2-0.2,0.6,0,0.8l5.1,5.1c0.1,0,0.1,0.1,0.2,0.1c0.2,0.1,0.3,0.1,0.5,0
	c0.1,0,0.2-0.1,0.2-0.1l5.1-5.1c0.2-0.2,0.2-0.6,0-0.8c-0.2-0.2-0.6-0.2-0.8,0l-4.1,4.1v-14h13.9l-4.1,4.1c-0.2,0.2-0.2,0.6,0,0.8
	c0.2,0.2,0.6,0.2,0.8,0l5.1-5.1C33.5,17.4,33.5,17.3,33.5,17.2z"/>
</svg>
