<?xml version="1.0" encoding="utf-8"?>
<!-- Generator: Adobe Illustrator 25.4.1, SVG Export Plug-In . SVG Version: 6.00 Build 0)  -->
<svg version="1.1" id="Layer_1" xmlns="http://www.w3.org/2000/svg" xmlns:xlink="http://www.w3.org/1999/xlink" x="0px" y="0px"
	 viewBox="0 0 102 102" style="enable-background:new 0 0 102 102;" xml:space="preserve">
<style type="text/css">
	.st0{opacity:0.2;fill:#FFFFFF;enable-background:new    ;}
</style>
<path class="st0" d="M100.5,51.6L100.5,51.6c0.3-0.6,0.3-0.9,0-1.5c0-0.3-0.3-0.6-0.3-0.6L84.9,34.2c-0.6-0.6-1.8-0.6-2.4,0.3
	c-0.6,0.6-0.6,1.8,0,2.4l12.3,12.3h-42v-42l12.3,12.3c0.6,0.6,1.8,0.6,2.4,0c0.6-0.6,0.6-1.8,0-2.7L52.2,1.5
	c-0.3-0.3-0.3-0.3-0.6-0.3c-0.6-0.3-0.9-0.3-1.5,0c-0.3,0-0.3,0.3-0.6,0.3L34.2,16.8c-0.3,0.3-0.3,0.9-0.3,1.2
	c0,0.6,0.3,0.9,0.6,1.2c0.6,0.6,1.8,0.6,2.4,0L49.2,6.9v42h-42l12.3-12.3c0.6-0.6,0.6-1.8,0-2.4c-0.6-0.6-1.8-0.6-2.4,0L1.8,49.5
	c0,0.3-0.3,0.3-0.3,0.6c-0.3,0.6-0.3,0.9,0,1.5c0,0.3,0.3,0.6,0.3,0.6l15.3,15.3c0.6,0.6,1.8,0.6,2.4,0c0.6-0.6,0.6-1.8,0-2.4
	L7.2,52.8h42v42L36.9,82.5c-0.3-0.3-0.6-0.3-1.2-0.3l0,0c-0.6,0-0.9,0.3-1.2,0.6c-0.6,0.6-0.6,1.8,0,2.4l15.3,15.3
	c0.3,0,0.3,0.3,0.6,0.3c0.6,0.3,0.9,0.3,1.5,0c0.3,0,0.6-0.3,0.6-0.3l15.3-15.3c0.6-0.6,0.6-1.8,0-2.4c-0.6-0.6-1.8-0.6-2.4,0
	L53.1,95.1v-42h41.7L82.5,65.4c-0.6,0.6-0.6,1.8,0,2.4c0.6,0.6,1.8,0.6,2.4,0l15.3-15.3C100.5,52.2,100.5,51.9,100.5,51.6z"/>
</svg>
