<svg xmlns="http://www.w3.org/2000/svg" viewBox="0 0 34 34"><defs><style>.cls-1{fill:#fff;}</style></defs><g id="Layer_2" data-name="Layer 2"><g id="Layer_12_copy_5" data-name="Layer 12 copy 5"><path class="cls-1" d="M33.92,17.38a.94.94,0,0,0,0-.76.83.83,0,0,0-.22-.33l-5.12-5.12a1,1,0,0,0-1.41,1.41L30.58,16H18V3.41l3.41,3.42a1,1,0,0,0,1.42,0,1,1,0,0,0,0-1.41L17.71.29a.93.93,0,0,0-.33-.21A1,1,0,0,0,17,0a1,1,0,0,0-.39.08,1,1,0,0,0-.32.21L11.17,5.42a1,1,0,0,0,1.41,1.41L16,3.41V16H3.41l3.42-3.42a1,1,0,0,0,0-1.41,1,1,0,0,0-1.42,0L.29,16.29a1,1,0,0,0-.21.33.92.92,0,0,0,0,.76,1,1,0,0,0,.21.33l5.12,5.12a1,1,0,0,0,1.42,0,1,1,0,0,0,0-1.41L3.41,18H16V30.59l-3.42-3.42a1,1,0,0,0-1.41,1.41l5.12,5.13a.93.93,0,0,0,.33.21.94.94,0,0,0,.76,0,1.15,1.15,0,0,0,.33-.21l5.12-5.13a1,1,0,0,0,0-1.41,1,1,0,0,0-1.42,0L18,30.59V18H30.58l-3.41,3.42a1,1,0,0,0,0,1.41,1,1,0,0,0,1.41,0l5.12-5.12A.83.83,0,0,0,33.92,17.38Z"/></g></g></svg>