<?xml version="1.0" encoding="utf-8"?>
<!-- Generator: Adobe Illustrator 25.3.1, SVG Export Plug-In . SVG Version: 6.00 Build 0)  -->
<svg version="1.1" id="Layer_1" xmlns="http://www.w3.org/2000/svg" xmlns:xlink="http://www.w3.org/1999/xlink" x="0px" y="0px"
	 viewBox="0 0 60 60" style="enable-background:new 0 0 60 60;" xml:space="preserve">
<style type="text/css">
	.st0{fill:#FFFFFF;}
</style>
<path class="st0" d="M58.9,30.6c0.2-0.4,0.2-0.8,0-1.2c-0.1-0.2-0.2-0.4-0.3-0.5L45.6,16c-0.6-0.6-1.6-0.6-2.3,0
	c-0.6,0.6-0.6,1.6,0,2.3l10.1,10.1H2.6C1.7,28.4,1,29.1,1,30c0,0.9,0.7,1.6,1.6,1.6h50.9L43.4,41.7c-0.6,0.6-0.6,1.6,0,2.3
	c0.3,0.3,0.7,0.5,1.1,0.5c0.4,0,0.8-0.2,1.1-0.5l12.9-12.9C58.7,31,58.8,30.8,58.9,30.6z"/>
</svg>
