<?xml version="1.0" encoding="utf-8"?>
<!-- Generator: Adobe Illustrator 25.3.1, SVG Export Plug-In . SVG Version: 6.00 Build 0)  -->
<svg version="1.1" id="Layer_1" xmlns="http://www.w3.org/2000/svg" xmlns:xlink="http://www.w3.org/1999/xlink" x="0px" y="0px"
	 viewBox="0 0 50 50" style="enable-background:new 0 0 50 50;" xml:space="preserve">
<style type="text/css">
	.st0{fill:#FFFFFF;}
</style>
<path class="st0" d="M46,25.6c-0.6,0-1.2,0.5-1.2,1.2c0,5.2-2,10.1-5.6,13.9c-7.7,7.9-20.2,8-28.1,0.4c-7.9-7.7-8-20.2-0.4-28.1
	c6.9-7.1,17.8-7.9,25.6-2.4h-6.2c-0.6,0-1.2,0.5-1.2,1.2c0,0.6,0.5,1.2,1.2,1.2h9.5c0,0,0,0,0,0c0.3,0,0.6-0.1,0.8-0.4
	c0.1-0.1,0.2-0.2,0.2-0.3c0,0,0,0,0,0c0.1-0.2,0.1-0.3,0.1-0.5V2.2c0-0.6-0.5-1.2-1.2-1.2c-0.6,0-1.2,0.5-1.2,1.2v7
	C34.6,6.2,29.9,4.6,25,4.6c-12.3,0-22.2,9.9-22.2,22.2C2.8,39.1,12.7,49,25,49c12.3,0,22.2-9.9,22.2-22.2
	C47.2,26.1,46.7,25.6,46,25.6z"/>
</svg>
