<?xml version="1.0" encoding="utf-8"?>
<!-- Generator: Adobe Illustrator 25.3.1, SVG Export Plug-In . SVG Version: 6.00 Build 0)  -->
<svg version="1.1" id="Layer_1" xmlns="http://www.w3.org/2000/svg" xmlns:xlink="http://www.w3.org/1999/xlink" x="0px" y="0px"
	 viewBox="0 0 80 80" style="enable-background:new 0 0 80 80;" xml:space="preserve">
<style type="text/css">
	.st0{opacity:7.000000e-02;fill:#FFFFFF;enable-background:new    ;}
</style>
<path class="st0" d="M63.3,58c3.8-4.9,6-11,6.1-17.3h-1.5C67.5,55.8,55.2,68,40.1,68c-15.4,0-28-12.5-28-27.9s12.5-28,27.9-28
	c5.8,0,11.6,1.9,16.3,5.2l1.9,1.4H46.3v1.5h14.5V5.8h-1.5v12l-1.2-0.9c-5.2-4-11.4-6.1-18-6.1c-9.2,0-17.6,4.1-23.2,11.3
	C7,34.9,9.3,53.4,22.1,63.3c6.2,4.8,13.9,6.9,21.7,5.9C51.5,68.2,58.5,64.2,63.3,58z"/>
</svg>
