<?xml version="1.0" encoding="utf-8"?>
<!-- Generator: Adobe Illustrator 25.3.1, SVG Export Plug-In . SVG Version: 6.00 Build 0)  -->
<svg version="1.1" id="Layer_1" xmlns="http://www.w3.org/2000/svg" xmlns:xlink="http://www.w3.org/1999/xlink" x="0px" y="0px"
	 viewBox="0 0 58 58" style="enable-background:new 0 0 58 58;" xml:space="preserve">
<style type="text/css">
	.st0{opacity:5.000000e-02;fill:#FFFFFF;enable-background:new    ;}
	.st1{opacity:0.5;fill:#FFFFFF;enable-background:new    ;}
	.st2{fill:none;}
</style>
<g>
	<rect x="12" y="12.1" transform="matrix(0.7071 -0.7071 0.7071 0.7071 -12.084 28.9987)" class="st0" width="33.9" height="33.9"/>
	
		<rect x="7.4" y="23.4" transform="matrix(0.7071 -0.7071 0.7071 0.7071 -16.711 17.7258)" class="st1" width="11.3" height="11.3"/>
	<path class="st1" d="M23.9,29c0,6-4.9,10.8-10.8,10.8c-6,0-10.8-4.9-10.8-10.8c0-6,4.9-10.8,10.8-10.8c2.3,0,4.5,0.7,6.3,2h-4.1
		v1.2h6.4V15h-1.2v4.5c-2.1-1.6-4.7-2.5-7.3-2.5c-6.7,0-12,5.5-12,12s5.5,12,12,12s12-5.5,12-12H23.9z"/>
</g>
<rect class="st2" width="58" height="58"/>
</svg>
