<?xml version="1.0" encoding="utf-8"?>
<!-- Generator: Adobe Illustrator 25.3.1, SVG Export Plug-In . SVG Version: 6.00 Build 0)  -->
<svg version="1.1" id="Layer_1" xmlns="http://www.w3.org/2000/svg" xmlns:xlink="http://www.w3.org/1999/xlink" x="0px" y="0px"
	 viewBox="0 0 40 40" style="enable-background:new 0 0 40 40;" xml:space="preserve">
<style type="text/css">
	.st0{opacity:5.000000e-02;fill:#FFFFFF;}
	.st1{opacity:0.5;fill:#FFFFFF;}
</style>
<g>
	<rect x="8.8" y="7.3" transform="matrix(0.7071 0.7071 -0.7071 0.7071 20.4466 -9.3626)" class="st0" width="25.5" height="25.5"/>
	<rect x="5.3" y="15.8" transform="matrix(0.7071 0.7071 -0.7071 0.7071 16.9319 -0.8773)" class="st1" width="8.5" height="8.5"/>
	<path class="st1" d="M17.7,20c0,4.5-3.7,8.1-8.1,8.1c-4.5,0-8.1-3.7-8.1-8.1c0-4.5,3.7-8.1,8.1-8.1c1.7,0,3.4,0.5,4.7,1.5h-3.1v0.9
		H16V9.5h-0.9v3.4c-1.6-1.2-3.5-1.9-5.5-1.9c-5,0-9,4.1-9,9s4.1,9,9,9s9-4.1,9-9H17.7z"/>
</g>
</svg>
