<?xml version="1.0" encoding="utf-8"?>
<!-- Generator: Adobe Illustrator 25.4.0, SVG Export Plug-In . SVG Version: 6.00 Build 0)  -->
<svg version="1.1" xmlns="http://www.w3.org/2000/svg" xmlns:xlink="http://www.w3.org/1999/xlink" x="0px" y="0px"
	 viewBox="0 0 60 60" style="enable-background:new 0 0 60 60;" xml:space="preserve">
<style type="text/css">
	.st0{display:none;}
	.st1{display:inline;opacity:0.8;fill:#231F20;enable-background:new    ;}
	.st2{fill:none;stroke:#000000;stroke-width:2;stroke-miterlimit:10;}
	.st3{opacity:0.8;fill:#FFFFFF;}
</style>
<g id="Layer_1" class="st0">
	<polygon class="st1" points="33.9,10.9 32.5,12.3 42.4,22.2 22.6,42 2.8,22.2 21.6,3.4 21.6,8.1 23.6,8.1 23.6,0 15.6,0 15.6,2 
		20.2,2 0,22.2 22.6,44.8 45.2,22.2 	"/>
</g>
<g id="Layer_2">
	<path class="st2" d="M26.8,5.3"/>
	<path class="st3" d="M49.4,30c0,10.7-8.7,19.4-19.4,19.4S10.6,40.7,10.6,30S19.3,10.6,30,10.6c4.7,0,9.1,1.7,12.6,4.7h-7.4v1.2h9.6
		V6.9h-1.2v7.6C39.8,11.2,35,9.4,30,9.4C18.6,9.4,9.4,18.6,9.4,30c0,11.4,9.2,20.6,20.6,20.6c11.4,0,20.6-9.2,20.6-20.6H49.4z"/>
</g>
</svg>
