<?xml version="1.0" encoding="utf-8"?>
<!-- Generator: Adobe Illustrator 25.3.1, SVG Export Plug-In . SVG Version: 6.00 Build 0)  -->
<svg version="1.1" id="Layer_1" xmlns="http://www.w3.org/2000/svg" xmlns:xlink="http://www.w3.org/1999/xlink" x="0px" y="0px"
	 viewBox="0 0 60 60" style="enable-background:new 0 0 60 60;" xml:space="preserve">
<style type="text/css">
	.st0{fill:#FF9999;}
</style>
<g id="Layer_2_1_">
	<g id="Layer_12_copy_24">
		<path class="st0" d="M35,56H25c-0.6,0-1-0.4-1-1v-6.2c-1.1-0.3-2.1-0.8-3.1-1.3l-4.4,4.4c-0.4,0.4-1,0.4-1.4,0l-7.1-7.1
			c-0.4-0.4-0.4-1,0-1.4l4.4-4.4c-0.5-1-0.9-2-1.3-3.1H5c-0.6,0-1-0.4-1-1V25c0-0.6,0.4-1,1-1h6.2c0.3-1.1,0.8-2.1,1.3-3.1l-4.4-4.4
			c-0.4-0.4-0.4-1,0-1.4l7.1-7.1c0.4-0.4,1-0.4,1.4,0l4.4,4.4c1-0.5,2-0.9,3.1-1.3V5c0-0.6,0.4-1,1-1h10c0.6,0,1,0.4,1,1v6.2
			c1.1,0.3,2.1,0.8,3.1,1.3l4.4-4.4c0.4-0.4,1-0.4,1.4,0l7.1,7.1c0.4,0.4,0.4,1,0,1.4l-4.4,4.4c0.5,1,0.9,2,1.3,3.1H55
			c0.6,0,1,0.4,1,1v10c0,0.6-0.4,1-1,1h-6.2c-0.3,1.1-0.8,2.1-1.3,3.1l4.4,4.4c0.2,0.2,0.3,0.4,0.3,0.7c0,0.3-0.1,0.5-0.3,0.7
			l-7.1,7.1c-0.4,0.4-1,0.4-1.4,0l-4.4-4.4c-1,0.5-2,0.9-3.1,1.3V55C36,55.6,35.6,56,35,56z M26,54h8v-5.9c0-0.5,0.3-0.9,0.7-1
			c1.4-0.4,2.7-1,4-1.7c0.4-0.2,0.9-0.2,1.2,0.2l4.2,4.2l5.7-5.7L45.6,40c-0.3-0.3-0.4-0.8-0.2-1.2c0.7-1.3,1.3-2.6,1.7-4
			c0.1-0.4,0.5-0.7,1-0.7H54V26h-5.9c-0.5,0-0.9-0.3-1-0.7c-0.4-1.4-1-2.7-1.7-4c-0.2-0.4-0.2-0.9,0.2-1.2l4.2-4.2l-5.6-5.7L40,14.4
			c-0.3,0.3-0.8,0.4-1.2,0.2c-1.3-0.7-2.6-1.3-4-1.7c-0.4-0.1-0.7-0.5-0.7-1V6H26v5.9c0,0.5-0.3,0.9-0.7,1c-1.4,0.4-2.7,1-4,1.7
			c-0.4,0.2-0.9,0.2-1.2-0.2l-4.2-4.2l-5.7,5.7l4.2,4.2c0.3,0.3,0.4,0.8,0.2,1.2c-0.7,1.3-1.3,2.6-1.7,4c-0.1,0.4-0.5,0.7-1,0.7H6v8
			h5.9c0.5,0,0.9,0.3,1,0.7c0.4,1.4,1,2.7,1.7,4c0.3,0.4,0.2,1-0.2,1.3l-4.2,4.1l5.7,5.7l4.2-4.2c0.3-0.3,0.8-0.4,1.2-0.2
			c1.3,0.7,2.6,1.3,4,1.7c0.4,0.1,0.7,0.5,0.7,1L26,54z"/>
		<path class="st0" d="M30,43.5c-7.5,0-13.5-6-13.5-13.5s6-13.5,13.5-13.5s13.5,6,13.5,13.5C43.5,37.5,37.5,43.5,30,43.5z M30,18.5
			c-6.4,0-11.5,5.1-11.5,11.5S23.6,41.5,30,41.5S41.5,36.4,41.5,30C41.5,23.7,36.3,18.5,30,18.5z"/>
	</g>
</g>
</svg>
