<?xml version="1.0" encoding="utf-8"?>
<!-- Generator: Adobe Illustrator 25.4.1, SVG Export Plug-In . SVG Version: 6.00 Build 0)  -->
<svg version="1.1" id="Layer_1" xmlns="http://www.w3.org/2000/svg" xmlns:xlink="http://www.w3.org/1999/xlink" x="0px" y="0px"
	 viewBox="0 0 110 110" style="enable-background:new 0 0 110 110;" xml:space="preserve">
<style type="text/css">
	.st0{fill:#FFFFFF;}
</style>
<g id="Layer_2_00000008140214986102164680000006862038054400581783_">
	<g id="ui_revamp_copy_2">
		<path class="st0" d="M63.6,4.6c-0.9-0.4-1.9-0.3-2.7,0.3l-28,18.4H5.2c-1.4,0-2.5,1.1-2.5,2.5v58.2c0,1.4,1.1,2.5,2.5,2.5h27.7
			l28,18.4c0.4,0.4,1,0.6,1.6,0.6c0.4,0,0.7-0.1,1.1-0.2c0.9-0.4,1.4-1.3,1.4-2.3V6.9C65,5.9,64.4,5,63.6,4.6z M60,12.2v85.5
			L35.4,82.2c-0.4-0.4-1-0.6-1.6-0.6H7.7V28.4h26.1c0.6,0,1.2-0.2,1.6-0.6L60,12.2z"/>
		<path class="st0" d="M105.5,65.2L95.3,55l10.1-10.1c0.5-0.5,0.7-1.1,0.7-1.8c0-0.7-0.3-1.3-0.7-1.8c-1-1-2.6-1-3.5,0L91.8,51.5
			L81.7,41.3c-1-1-2.5-1-3.5,0c-1,1-1,2.5,0,3.5L88.2,55L78,65.1c-1,1-1,2.5,0,3.5c0.5,0.5,1.1,0.7,1.8,0.7c0.7,0,1.4-0.2,1.8-0.7
			l10.1-10.1l10.1,10.2c0.5,0.5,1.1,0.7,1.8,0.7c0.7,0,1.4-0.2,1.8-0.7C106.4,67.7,106.4,66.2,105.5,65.2z"/>
	</g>
</g>
</svg>
