<?xml version="1.0" encoding="utf-8"?>
<!-- Generator: Adobe Illustrator 25.4.1, SVG Export Plug-In . SVG Version: 6.00 Build 0)  -->
<svg version="1.1" id="Layer_1" xmlns="http://www.w3.org/2000/svg" xmlns:xlink="http://www.w3.org/1999/xlink" x="0px" y="0px"
	 viewBox="0 0 110 110" style="enable-background:new 0 0 110 110;" xml:space="preserve">
<style type="text/css">
	.st0{fill:#FFFFFF;}
</style>
<path class="st0" d="M78.8,68.5c-0.6,0.3-1.1,0.9-1.3,1.5c-0.2,0.6-0.1,1.2,0.2,1.8c0.4,0.8,1.2,1.4,2.2,1.4c0.4,0,0.7,0,1.1-0.2
	c0.5-0.2,11.2-5.7,11.2-18c0-12.1-10-17.4-11.1-18c-1.1-0.7-2.7-0.2-3.4,1.1c-0.6,1.1-0.2,2.6,1,3.3c0.1,0.1,0.2,0.1,0.2,0.1
	c3.1,1.9,8.2,6.1,8.2,13.4C87.1,64.2,79.1,68.3,78.8,68.5z"/>
<path class="st0" d="M108.6,55c0-23.4-22.7-35.2-27.3-37.4l-0.2,0c-0.6-0.3-1.3-0.3-1.9,0c-0.6,0.2-1.1,0.7-1.4,1.4
	c-0.5,1.4,0.1,2.8,1.4,3.3c2.4,1.1,24.4,11.4,24.4,32.8c0,22.2-23.6,32.4-24.5,32.8c-1.2,0.6-1.7,1.9-1.3,3.2l0,0.1
	c0.4,0.9,1.3,1.4,2.2,1.4c0.3,0,0.6,0,1.1-0.2l0.1,0C89.2,88.6,108.6,77,108.6,55z"/>
<path class="st0" d="M63.6,4.6c-0.9-0.4-1.9-0.3-2.7,0.3l-28,18.4H5.2c-1.4,0-2.5,1.1-2.5,2.5V84c0,1.4,1.1,2.5,2.5,2.5h27.7
	l28,18.4c0.4,0.4,1,0.6,1.6,0.6c0.4,0,0.7-0.1,1.1-0.2c0.9-0.4,1.4-1.3,1.4-2.3V6.9C65,5.9,64.4,5,63.6,4.6z M60,12.2v85.5
	L35.4,82.2c-0.4-0.4-1-0.6-1.6-0.6H7.7V28.4h26.1c0.6,0,1.2-0.2,1.6-0.6L60,12.2z"/>
</svg>
