<svg xmlns="http://www.w3.org/2000/svg" width="24" height="24" viewBox="0 0 24 24"><g transform="translate(-1.5 -1.5)" opacity="0.15"><path d="M13.5,25.5a12,12,0,1,1,12-12A11.965,11.965,0,0,1,13.5,25.5Zm0-21.818A9.818,9.818,0,1,0,23.318,13.5,9.777,9.777,0,0,0,13.5,3.682Z" fill="#fff"/><path d="M13.091,20.727a.99.99,0,0,1-.764-.327,1.055,1.055,0,0,1,0-1.527l6.545-6.545A1.08,1.08,0,0,1,20.4,13.855L13.855,20.4A.99.99,0,0,1,13.091,20.727Z" transform="translate(-2.864 -2.864)" fill="#fff"/><path d="M19.636,20.727a.99.99,0,0,1-.764-.327l-6.545-6.545a1.08,1.08,0,1,1,1.527-1.527L20.4,18.873a1.055,1.055,0,0,1,0,1.527A.99.99,0,0,1,19.636,20.727Z" transform="translate(-2.864 -2.864)" fill="#fff"/></g></svg>