<?xml version="1.0" encoding="utf-8"?>
<!-- Generator: Adobe Illustrator 25.3.1, SVG Export Plug-In . SVG Version: 6.00 Build 0)  -->
<svg version="1.1" id="Layer_1" xmlns="http://www.w3.org/2000/svg" xmlns:xlink="http://www.w3.org/1999/xlink" x="0px" y="0px"
	 viewBox="0 0 80 80" style="enable-background:new 0 0 80 80;" xml:space="preserve">
<style type="text/css">
	.st0{fill:#FFFFFF;}
</style>
<path class="st0" d="M42.2,40l28.3-28.3c0.6-0.6,0.6-1.6,0-2.2c-0.6-0.6-1.6-0.6-2.2,0L40,37.8L11.7,9.5c-0.6-0.6-1.6-0.6-2.2,0
	c-0.6,0.6-0.6,1.6,0,2.2L37.8,40L9.5,68.3c-0.6,0.6-0.6,1.6,0,2.2c0.3,0.3,0.7,0.5,1.1,0.5s0.8-0.2,1.1-0.5L40,42.2l28.3,28.3
	c0.3,0.3,0.7,0.5,1.1,0.5s0.8-0.2,1.1-0.5c0.6-0.6,0.6-1.6,0-2.2L42.2,40z"/>
</svg>
